<svg width="80" height="80" viewBox="0 0 80 80" fill="none" xmlns="http://www.w3.org/2000/svg">
<circle cx="40" cy="40" r="40" fill="#F16725"/>
<path d="M28.3385 28H52.4308C52.7858 28 53.1262 28.1405 53.3772 28.3905C53.6282 28.6406 53.7692 28.9797 53.7692 29.3333V50.6667C53.7692 51.0203 53.6282 51.3594 53.3772 51.6095C53.1262 51.8595 52.7858 52 52.4308 52H28.3385C27.9835 52 27.643 51.8595 27.392 51.6095C27.141 51.3594 27 51.0203 27 50.6667V29.3333C27 28.9797 27.141 28.6406 27.392 28.3905C27.643 28.1405 27.9835 28 28.3385 28V28ZM40.4649 39.5773L31.8827 32.3173L30.1494 34.3493L40.4823 43.0893L50.6292 34.3427L48.8785 32.3253L40.4663 39.5773H40.4649Z" fill="white"/>
</svg>
