<svg width="24" height="25" viewBox="0 0 24 25" fill="none" xmlns="http://www.w3.org/2000/svg">
<g clip-path="url(#clip0_1_1426)">
<path d="M2.004 22.5L3.356 17.532C2.46514 16.0049 1.99709 14.268 2 12.5C2 6.977 6.477 2.5 12 2.5C17.523 2.5 22 6.977 22 12.5C22 18.023 17.523 22.5 12 22.5C10.2328 22.5029 8.49665 22.0352 6.97 21.145L2.004 22.5ZM8.391 7.808C8.26186 7.81602 8.13567 7.85003 8.02 7.908C7.91152 7.96943 7.81249 8.04622 7.726 8.136C7.606 8.249 7.538 8.347 7.465 8.442C7.09541 8.923 6.89661 9.51342 6.9 10.12C6.902 10.61 7.03 11.087 7.23 11.533C7.639 12.435 8.312 13.39 9.201 14.275C9.415 14.488 9.624 14.702 9.849 14.901C10.9524 15.8725 12.2673 16.573 13.689 16.947L14.258 17.034C14.443 17.044 14.628 17.03 14.814 17.021C15.1052 17.006 15.3896 16.9271 15.647 16.79C15.813 16.702 15.891 16.658 16.03 16.57C16.03 16.57 16.073 16.542 16.155 16.48C16.29 16.38 16.373 16.309 16.485 16.192C16.568 16.106 16.64 16.005 16.695 15.89C16.773 15.727 16.851 15.416 16.883 15.157C16.907 14.959 16.9 14.851 16.897 14.784C16.893 14.677 16.804 14.566 16.707 14.519L16.125 14.258C16.125 14.258 15.255 13.879 14.724 13.637C14.668 13.6126 14.608 13.5987 14.547 13.596C14.4786 13.589 14.4094 13.5967 14.3442 13.6186C14.2791 13.6405 14.2193 13.6761 14.169 13.723V13.721C14.164 13.721 14.097 13.778 13.374 14.654C13.3325 14.7098 13.2753 14.7519 13.2098 14.7751C13.1443 14.7982 13.0733 14.8013 13.006 14.784C12.9408 14.7666 12.877 14.7445 12.815 14.718C12.691 14.666 12.648 14.646 12.563 14.609L12.558 14.607C11.9859 14.3572 11.4562 14.0198 10.988 13.607C10.862 13.497 10.745 13.377 10.625 13.261C10.2316 12.8842 9.88871 12.458 9.605 11.993L9.546 11.898C9.50362 11.8342 9.46936 11.7653 9.444 11.693C9.406 11.546 9.505 11.428 9.505 11.428C9.505 11.428 9.748 11.162 9.861 11.018C9.95509 10.8983 10.0429 10.7738 10.124 10.645C10.242 10.455 10.279 10.26 10.217 10.109C9.937 9.425 9.647 8.744 9.349 8.068C9.29 7.934 9.115 7.838 8.956 7.819C8.902 7.813 8.848 7.807 8.794 7.803C8.6597 7.79633 8.52513 7.79766 8.391 7.807V7.808Z" fill="#189C0D"/>
</g>
<defs>
<clipPath id="clip0_1_1426">
<rect width="24" height="24" fill="white" transform="translate(0 0.5)"/>
</clipPath>
</defs>
</svg>
