<svg width="25" height="24" viewBox="0 0 25 24" fill="none" xmlns="http://www.w3.org/2000/svg">
<g clip-path="url(#clip0_4_206)">
<path d="M12.5 14V22H4.5C4.5 19.8783 5.34285 17.8434 6.84315 16.3431C8.34344 14.8429 10.3783 14 12.5 14V14ZM12.5 13C9.185 13 6.5 10.315 6.5 7C6.5 3.685 9.185 1 12.5 1C15.815 1 18.5 3.685 18.5 7C18.5 10.315 15.815 13 12.5 13ZM21.946 20.032L23.45 21.536L22.036 22.95L20.532 21.446C19.6933 21.9405 18.7031 22.1121 17.747 21.9288C16.7908 21.7454 15.9343 21.2196 15.3381 20.4499C14.7419 19.6802 14.4469 18.7195 14.5083 17.7479C14.5698 16.7762 14.9835 15.8604 15.6719 15.1719C16.3604 14.4835 17.2762 14.0698 18.2479 14.0083C19.2195 13.9469 20.1802 14.2419 20.9499 14.8381C21.7196 15.4343 22.2454 16.2908 22.4288 17.247C22.6121 18.2031 22.4405 19.1933 21.946 20.032V20.032ZM18.5 20C19.0304 20 19.5391 19.7893 19.9142 19.4142C20.2893 19.0391 20.5 18.5304 20.5 18C20.5 17.4696 20.2893 16.9609 19.9142 16.5858C19.5391 16.2107 19.0304 16 18.5 16C17.9696 16 17.4609 16.2107 17.0858 16.5858C16.7107 16.9609 16.5 17.4696 16.5 18C16.5 18.5304 16.7107 19.0391 17.0858 19.4142C17.4609 19.7893 17.9696 20 18.5 20V20Z" fill="#626168"/>
</g>
<defs>
<clipPath id="clip0_4_206">
<rect width="24" height="24" fill="white" transform="translate(0.5)"/>
</clipPath>
</defs>
</svg>
