<svg width="25" height="24" viewBox="0 0 25 24" fill="none" xmlns="http://www.w3.org/2000/svg">
<g clip-path="url(#clip0_4_221)">
<path d="M21.5 19H23.5V21H1.5V19H3.5V4C3.5 3.73478 3.60536 3.48043 3.79289 3.29289C3.98043 3.10536 4.23478 3 4.5 3H14.5C14.7652 3 15.0196 3.10536 15.2071 3.29289C15.3946 3.48043 15.5 3.73478 15.5 4V19H17.5V9H20.5C20.7652 9 21.0196 9.10536 21.2071 9.29289C21.3946 9.48043 21.5 9.73478 21.5 10V19ZM7.5 11V13H11.5V11H7.5ZM7.5 7V9H11.5V7H7.5Z" fill="#626168"/>
</g>
<defs>
<clipPath id="clip0_4_221">
<rect width="24" height="24" fill="white" transform="translate(0.5)"/>
</clipPath>
</defs>
</svg>
