<svg width="24" height="24" viewBox="0 0 24 24" fill="none" xmlns="http://www.w3.org/2000/svg">
<g clip-path="url(#clip0_4_228)">
<path d="M3.99999 6.41408L0.756989 3.17208L2.17199 1.75708L5.41399 5.00008H20.656C20.8119 5.00007 20.9656 5.03649 21.1049 5.10645C21.2441 5.1764 21.3652 5.27794 21.4582 5.40298C21.5513 5.52801 21.6138 5.67306 21.6409 5.82657C21.6679 5.98007 21.6587 6.13777 21.614 6.28708L19.214 14.2871C19.1522 14.4932 19.0257 14.6738 18.8531 14.8023C18.6805 14.9307 18.4711 15.0001 18.256 15.0001H5.99999V17.0001H17V19.0001H4.99999C4.73477 19.0001 4.48042 18.8947 4.29288 18.7072C4.10535 18.5197 3.99999 18.2653 3.99999 18.0001V6.41408ZM5.49999 23.0001C5.10216 23.0001 4.72063 22.842 4.43933 22.5607C4.15802 22.2794 3.99999 21.8979 3.99999 21.5001C3.99999 21.1023 4.15802 20.7207 4.43933 20.4394C4.72063 20.1581 5.10216 20.0001 5.49999 20.0001C5.89781 20.0001 6.27934 20.1581 6.56065 20.4394C6.84195 20.7207 6.99999 21.1023 6.99999 21.5001C6.99999 21.8979 6.84195 22.2794 6.56065 22.5607C6.27934 22.842 5.89781 23.0001 5.49999 23.0001ZM17.5 23.0001C17.1022 23.0001 16.7206 22.842 16.4393 22.5607C16.158 22.2794 16 21.8979 16 21.5001C16 21.1023 16.158 20.7207 16.4393 20.4394C16.7206 20.1581 17.1022 20.0001 17.5 20.0001C17.8978 20.0001 18.2793 20.1581 18.5606 20.4394C18.842 20.7207 19 21.1023 19 21.5001C19 21.8979 18.842 22.2794 18.5606 22.5607C18.2793 22.842 17.8978 23.0001 17.5 23.0001Z" fill="#626168"/>
</g>
<defs>
<clipPath id="clip0_4_228">
<rect width="24" height="24" fill="white"/>
</clipPath>
</defs>
</svg>
