<svg width="24" height="24" viewBox="0 0 24 24" fill="none" xmlns="http://www.w3.org/2000/svg">
<path d="M13.1195 17.0237L8.9205 14.7337C8.3723 15.3198 7.66049 15.7274 6.87758 15.9036C6.09467 16.0798 5.27685 16.0164 4.53043 15.7217C3.784 15.427 3.14346 14.9146 2.69207 14.2511C2.24068 13.5876 1.9993 12.8037 1.9993 12.0012C1.9993 11.1987 2.24068 10.4148 2.69207 9.75125C3.14346 9.08774 3.784 8.57534 4.53043 8.28065C5.27685 7.98596 6.09467 7.9226 6.87758 8.0988C7.66049 8.27501 8.3723 8.68263 8.9205 9.26869L13.1205 6.97869C12.8821 6.03477 12.9961 5.03628 13.4411 4.17039C13.8862 3.30451 14.6318 2.63067 15.5382 2.27519C16.4445 1.91971 17.4494 1.907 18.3645 2.23943C19.2796 2.57186 20.042 3.22661 20.5088 4.08095C20.9757 4.9353 21.1149 5.93058 20.9004 6.88024C20.6859 7.82989 20.1325 8.66873 19.3437 9.2395C18.555 9.81027 17.5852 10.0738 16.6161 9.98068C15.647 9.88757 14.7451 9.4442 14.0795 8.73369L9.8795 11.0237C10.0407 11.665 10.0407 12.3363 9.8795 12.9777L14.0785 15.2677C14.7441 14.5572 15.646 14.1138 16.6151 14.0207C17.5842 13.9276 18.554 14.1911 19.3427 14.7619C20.1315 15.3327 20.6849 16.1715 20.8994 17.1211C21.1139 18.0708 20.9747 19.0661 20.5078 19.9204C20.041 20.7748 19.2786 21.4295 18.3635 21.762C17.4484 22.0944 16.4435 22.0817 15.5372 21.7262C14.6308 21.3707 13.8852 20.6969 13.4401 19.831C12.9951 18.9651 12.8811 17.9666 13.1195 17.0227V17.0237ZM5.9995 14.0007C6.52994 14.0007 7.03864 13.79 7.41372 13.4149C7.78879 13.0398 7.9995 12.5311 7.9995 12.0007C7.9995 11.4703 7.78879 10.9615 7.41372 10.5865C7.03864 10.2114 6.52994 10.0007 5.9995 10.0007C5.46907 10.0007 4.96036 10.2114 4.58529 10.5865C4.21022 10.9615 3.9995 11.4703 3.9995 12.0007C3.9995 12.5311 4.21022 13.0398 4.58529 13.4149C4.96036 13.79 5.46907 14.0007 5.9995 14.0007V14.0007ZM16.9995 8.00069C17.5299 8.00069 18.0386 7.78998 18.4137 7.4149C18.7888 7.03983 18.9995 6.53112 18.9995 6.00069C18.9995 5.47026 18.7888 4.96155 18.4137 4.58648C18.0386 4.21141 17.5299 4.00069 16.9995 4.00069C16.4691 4.00069 15.9604 4.21141 15.5853 4.58648C15.2102 4.96155 14.9995 5.47026 14.9995 6.00069C14.9995 6.53112 15.2102 7.03983 15.5853 7.4149C15.9604 7.78998 16.4691 8.00069 16.9995 8.00069V8.00069ZM16.9995 20.0007C17.5299 20.0007 18.0386 19.79 18.4137 19.4149C18.7888 19.0398 18.9995 18.5311 18.9995 18.0007C18.9995 17.4703 18.7888 16.9615 18.4137 16.5865C18.0386 16.2114 17.5299 16.0007 16.9995 16.0007C16.4691 16.0007 15.9604 16.2114 15.5853 16.5865C15.2102 16.9615 14.9995 17.4703 14.9995 18.0007C14.9995 18.5311 15.2102 19.0398 15.5853 19.4149C15.9604 19.79 16.4691 20.0007 16.9995 20.0007V20.0007Z" fill="#272324"/>
</svg>
