<svg width="110" height="22" viewBox="0 0 110 22" fill="none" xmlns="http://www.w3.org/2000/svg">
<path d="M32.5108 17.436L26.6333 21.3119L27.9458 13.5286L23 8.14071L29.6892 7.20608L32.5108 0L35.3325 7.20608L42.0217 8.14071L37.0758 13.5286L38.3883 21.3119L32.5108 17.436Z" fill="#F16725"/>
<path d="M55.0108 17.436L49.1333 21.3119L50.4458 13.5286L45.5 8.14071L52.1892 7.20608L55.0108 0L57.8325 7.20608L64.5217 8.14071L59.5758 13.5286L60.8883 21.3119L55.0108 17.436Z" fill="#F16725"/>
<path d="M77.5108 17.436L71.6333 21.3119L72.9458 13.5286L68 8.14071L74.6892 7.20608L77.5108 0L80.3325 7.20608L87.0217 8.14071L82.0758 13.5286L83.3883 21.3119L77.5108 17.436Z" fill="#F16725"/>
<path d="M9.51083 17.436L3.63333 21.3119L4.94583 13.5286L0 8.14071L6.68917 7.20608L9.51083 0L12.3325 7.20608L19.0217 8.14071L14.0758 13.5286L15.3883 21.3119L9.51083 17.436Z" fill="#F16725"/>
<path d="M100.023 15.874L103.562 18.2076L102.771 13.5217L105.748 10.277L101.721 9.71448L100.023 5.37611V15.874ZM100.023 18.1242L94.1451 22.0002L95.4576 14.2168L90.5117 8.82894L97.2009 7.89431L100.023 0.688232L102.844 7.89431L109.533 8.82894L104.588 14.2168L105.9 22.0002L100.023 18.1242V18.1242Z" fill="#F16725"/>
</svg>
