<svg width="100" height="100" viewBox="0 0 100 100" fill="none" xmlns="http://www.w3.org/2000/svg">
<rect width="100" height="100" rx="50" fill="#F9F5F4"/>
<g clip-path="url(#clip0_1_1383)">
<rect width="43.2" height="43.2" transform="translate(28.0001 28)" fill="white" fill-opacity="0.2"/>
<path d="M62.8773 50.3491L43.7991 63.0679C43.6636 63.1581 43.5061 63.2098 43.3435 63.2176C43.1809 63.2254 43.0192 63.1889 42.8757 63.112C42.7322 63.0352 42.6122 62.9209 42.5285 62.7812C42.4448 62.6416 42.4006 62.4819 42.4005 62.3191V36.8815C42.4006 36.7187 42.4448 36.5589 42.5285 36.4193C42.6122 36.2797 42.7322 36.1653 42.8757 36.0885C43.0192 36.0117 43.1809 35.9752 43.3435 35.983C43.5061 35.9907 43.6636 36.0425 43.7991 36.1327L62.8773 48.8515C63.0005 48.9337 63.1016 49.045 63.1715 49.1756C63.2414 49.3063 63.278 49.4521 63.278 49.6003C63.278 49.7484 63.2414 49.8943 63.1715 50.0249C63.1016 50.1555 63.0005 50.2669 62.8773 50.3491V50.3491Z" fill="#423F40"/>
</g>
<defs>
<clipPath id="clip0_1_1383">
<rect width="43.2" height="43.2" fill="white" transform="translate(28.0001 28)"/>
</clipPath>
</defs>
</svg>
