<svg width="24" height="24" viewBox="0 0 24 24" fill="none" xmlns="http://www.w3.org/2000/svg">
<path d="M4.99858 1.99976H18.9986C19.2638 1.99976 19.5182 2.10511 19.7057 2.29265C19.8932 2.48019 19.9986 2.73454 19.9986 2.99976V22.1428C19.9987 22.2322 19.9748 22.32 19.9295 22.397C19.8841 22.4741 19.8189 22.5375 19.7407 22.5808C19.6625 22.6241 19.5741 22.6457 19.4847 22.6432C19.3954 22.6407 19.3083 22.6143 19.2326 22.5668L11.9986 18.0298L4.76458 22.5658C4.68895 22.6133 4.60197 22.6397 4.51268 22.6422C4.4234 22.6447 4.33507 22.6233 4.25688 22.5801C4.17868 22.5369 4.11349 22.4736 4.06806 22.3967C4.02264 22.3197 3.99865 22.2321 3.99858 22.1428V2.99976C3.99858 2.73454 4.10394 2.48019 4.29147 2.29265C4.47901 2.10511 4.73336 1.99976 4.99858 1.99976ZM17.9986 3.99976H5.99858V19.4318L11.9986 15.6708L17.9986 19.4318V3.99976Z" fill="#272324"/>
</svg>
