<svg width="15" height="16" viewBox="0 0 15 16" fill="none" xmlns="http://www.w3.org/2000/svg">
<g clip-path="url(#clip0_1_1352)">
<path d="M7.431 13.9623C10.8109 13.9623 13.5508 11.2224 13.5508 7.8425C13.5508 4.4626 10.8109 1.72266 7.431 1.72266C4.0511 1.72266 1.31116 4.4626 1.31116 7.8425C1.31116 11.2224 4.0511 13.9623 7.431 13.9623Z" fill="white" stroke="#626168" stroke-linecap="round" stroke-linejoin="round"/>
<path opacity="0.55" d="M7.43488 1.72266C8.96562 3.39849 9.83554 5.57328 9.88281 7.8425C9.83554 10.1117 8.96562 12.2865 7.43488 13.9623C5.90413 12.2865 5.03421 10.1117 4.98694 7.8425C5.03421 5.57328 5.90413 3.39849 7.43488 1.72266V1.72266Z" fill="#272324" stroke="#626168" stroke-linecap="round" stroke-linejoin="round"/>
<path d="M1.31116 7.84375H13.5508" stroke="#626168" stroke-linecap="round" stroke-linejoin="round"/>
</g>
<defs>
<clipPath id="clip0_1_1352">
<rect width="14.6876" height="14.6876" fill="white" transform="translate(0.0904541 0.5)"/>
</clipPath>
</defs>
</svg>
