<svg width="14" height="20" viewBox="0 0 14 20" fill="none" xmlns="http://www.w3.org/2000/svg">
<path fill-rule="evenodd" clip-rule="evenodd" d="M6.71902 14.8557C6.48874 14.8557 6.33998 14.8761 6.25189 14.8963V17.8844C6.34012 17.9048 6.48231 17.9048 6.61085 17.9048C7.54497 17.9113 8.15455 17.3967 8.15455 16.3058C8.16111 15.3569 7.60602 14.8557 6.71902 14.8557V14.8557Z" fill="#F80707"/>
<path fill-rule="evenodd" clip-rule="evenodd" d="M2.73119 14.8423C2.52153 14.8423 2.37933 14.8624 2.30464 14.8826V16.2312C2.39274 16.2515 2.50119 16.2584 2.64951 16.2584C3.19846 16.2584 3.53678 15.9804 3.53678 15.513C3.53692 15.093 3.24558 14.8423 2.73119 14.8423V14.8423Z" fill="#F80707"/>
<path d="M13.9564 5.00112C13.9554 4.9131 13.9274 4.82614 13.867 4.75728L10.1674 0.528654C10.1666 0.527448 10.1652 0.527046 10.1644 0.525974C10.1424 0.501322 10.117 0.481091 10.0899 0.46314C10.0817 0.457915 10.0733 0.453225 10.0648 0.448402C10.0413 0.435674 10.0166 0.42509 9.99066 0.417319C9.98396 0.41531 9.9774 0.412496 9.97044 0.410621C9.94259 0.403922 9.91354 0.399902 9.88449 0.399902H0.792427C0.377531 0.399902 0.0399933 0.737795 0.0399933 1.15285V18.847C0.0399933 19.2623 0.377521 19.5999 0.792427 19.5999H13.2074C13.6223 19.5999 13.96 19.2623 13.96 18.847V5.0433C13.9599 5.0291 13.9577 5.0153 13.9562 5.00109L13.9564 5.00112ZM4.13878 16.5699C3.78678 16.9019 3.26546 17.0511 2.65585 17.0511C2.52063 17.0511 2.39839 17.0442 2.30399 17.0309V18.6637H1.28164V14.1576C1.59962 14.1036 2.04679 14.0627 2.67659 14.0627C3.31293 14.0627 3.7667 14.1848 4.07126 14.4286C4.3626 14.6591 4.55834 15.0385 4.55834 15.4856C4.55834 15.9329 4.40973 16.3123 4.13875 16.5697L4.13878 16.5699ZM8.4927 18.1218C8.01258 18.5214 7.2813 18.7111 6.38776 18.7111C5.85276 18.7111 5.47372 18.6772 5.21597 18.6435V14.1576C5.59526 14.0969 6.0897 14.0628 6.61106 14.0628C7.47718 14.0628 8.03935 14.2187 8.47971 14.5506C8.9538 14.9031 9.25182 15.4654 9.25182 16.2717C9.25142 17.1459 8.93317 17.7489 8.4927 18.1216V18.1218ZM12.7188 14.9438H10.9647V15.9872H12.6034V16.8277H10.9647V18.6637H9.92912V14.0972H12.7188V14.9438ZM0.792541 13.1844V1.15296H9.50827V5.00534C9.50827 5.21314 9.67656 5.38183 9.8845 5.38183H13.2075L13.2079 13.1843L0.792541 13.1844Z" fill="#F80707"/>
<path d="M10.8596 8.49197C10.8377 8.48996 10.3075 8.44146 9.49372 8.44146C9.2388 8.44146 8.982 8.44655 8.72843 8.45606C7.12139 7.24918 5.80517 6.04154 5.10045 5.36466C5.11331 5.29017 5.12214 5.23122 5.12616 5.18594C5.21921 4.20415 5.11585 3.54137 4.8201 3.21592C4.6265 3.00329 4.34227 2.93255 4.04569 3.01361C3.8616 3.06184 3.52074 3.24057 3.41147 3.60447C3.29111 4.00668 3.48471 4.49461 3.99359 5.06066C4.00163 5.06924 4.17434 5.25024 4.48804 5.55706C4.28413 6.53 3.75035 8.6297 3.4914 9.63786C2.88302 9.96316 2.37613 10.3549 1.98386 10.8044L1.95815 10.8339L1.94155 10.8691C1.90112 10.9541 1.70792 11.3951 1.85292 11.7494C1.91919 11.9104 2.04331 12.028 2.21188 12.0898L2.257 12.102C2.257 12.102 2.2977 12.1107 2.36946 12.1107C2.68329 12.1107 3.45796 11.9458 3.87354 10.4133L3.97422 10.0251C5.42473 9.31957 7.23783 9.09207 8.55196 9.02855C9.22796 9.5303 9.9006 9.99103 10.5523 10.3991L10.5736 10.4115C10.6052 10.4277 10.8911 10.5689 11.2258 10.5692C11.7041 10.5692 12.0536 10.2755 12.1836 9.76356L12.1901 9.72846C12.2266 9.43599 12.153 9.17218 11.9778 8.96612C11.6087 8.53176 10.9213 8.49397 10.8594 8.49184L10.8596 8.49197ZM2.38109 11.5458C2.37815 11.5424 2.37681 11.5391 2.37534 11.5354C2.34414 11.4602 2.3815 11.2779 2.43666 11.1443C2.67323 10.8796 2.95722 10.6365 3.28496 10.4178C2.96577 11.4517 2.50171 11.541 2.3811 11.5459L2.38109 11.5458ZM4.40745 4.67694C3.91743 4.13098 3.92466 3.86034 3.95105 3.76924C3.99443 3.61691 4.18963 3.5593 4.19137 3.55876C4.28965 3.5321 4.34936 3.53733 4.40251 3.59574C4.52274 3.72784 4.62597 4.12668 4.58526 4.85822C4.46945 4.7418 4.40746 4.67695 4.40746 4.67695L4.40745 4.67694ZM4.15427 9.32607L4.16271 9.29378L4.16164 9.29418C4.40705 8.33222 4.7609 6.92386 4.96442 6.01925L4.97178 6.02622L4.97245 6.02193C5.63091 6.64238 6.6404 7.54981 7.84913 8.49353L7.83561 8.4942L7.85556 8.5092C6.71685 8.60553 5.35686 8.83008 4.15423 9.32605L4.15427 9.32607ZM11.6323 9.64158C11.5456 9.96045 11.3788 10.004 11.2259 10.004C11.0485 10.004 10.8776 9.93016 10.8387 9.9122C10.3948 9.63393 9.94084 9.33047 9.48269 9.00597H9.49367C10.2792 9.00597 10.8023 9.05367 10.8229 9.05514C10.9541 9.0601 11.3693 9.12146 11.5481 9.33194C11.6183 9.41434 11.6452 9.51308 11.6323 9.64156L11.6323 9.64158Z" fill="#F80707"/>
</svg>
