<svg width="20" height="20" viewBox="0 0 20 20" fill="none" xmlns="http://www.w3.org/2000/svg">
<g clip-path="url(#clip0_1_1287)">
<path d="M10.0007 17.7793C5.70507 17.7793 2.22296 14.2972 2.22296 10.0015C2.22296 5.70587 5.70507 2.22375 10.0007 2.22375C14.2964 2.22375 17.7785 5.70587 17.7785 10.0015C17.7785 14.2972 14.2964 17.7793 10.0007 17.7793ZM10.0007 16.2238C11.651 16.2238 13.2336 15.5682 14.4005 14.4013C15.5674 13.2344 16.223 11.6518 16.223 10.0015C16.223 8.3513 15.5674 6.76865 14.4005 5.60176C13.2336 4.43486 11.651 3.77931 10.0007 3.77931C8.3505 3.77931 6.76786 4.43486 5.60096 5.60176C4.43407 6.76865 3.77852 8.3513 3.77852 10.0015C3.77852 11.6518 4.43407 13.2344 5.60096 14.4013C6.76786 15.5682 8.3505 16.2238 10.0007 16.2238V16.2238ZM10.7785 10.0015H13.8896V11.5571H9.22296V6.11264H10.7785V10.0015Z" fill="#689F38"/>
</g>
<defs>
<clipPath id="clip0_1_1287">
<rect width="18.6667" height="18.6667" fill="white" transform="translate(0.667969 0.667969)"/>
</clipPath>
</defs>
</svg>
